<mxfile host="app.diagrams.net" modified="2023-06-03T05:39:34.095Z" agent="Mozilla/5.0 (Windows NT 10.0; Win64; x64) AppleWebKit/537.36 (KHTML, like Gecko) Chrome/113.0.0.0 Safari/537.36 OPR/99.0.0.0" version="21.3.7" etag="Y_3MB5G2U8gX58ORMHpS" type="github">
  <diagram name="Page-1" id="7CeQwGUVUaw7XVFvLVLb">
    <mxGraphModel>
      <root>
        <mxCell id="0" />
        <mxCell id="1" parent="0" />
      </root>
    </mxGraphModel>
  </diagram>
</mxfile>
